# MagicaVoxel @ Ephtracy

# group
o kv korobka

# material
mtllib robot-0-kv korobka.mtl
usemtl palette

# normals
vn -1 0 0
vn 1 0 0
vn 0 0 1
vn 0 0 -1
vn 0 -1 0
vn 0 1 0

# texcoords
vt 0.939453 0.5
vt 0.982422 0.5
vt 0.986328 0.5

# verts
v -13.6 -0.1 4
v -13.6 -0.1 1.3
v -13.6 2.6 4
v -13.6 2.6 1.3
v -10.9 -0.1 4
v -10.9 -0.1 1.3
v -10.9 0 3.9
v -10.9 0 3.2
v -10.9 0 3
v -10.9 0 2.3
v -10.9 0.1 3.8
v -10.9 0.1 3.7
v -10.9 0.1 3.4
v -10.9 0.1 3.3
v -10.9 0.1 2.9
v -10.9 0.1 2.8
v -10.9 0.1 2.5
v -10.9 0.1 2.4
v -10.9 0.2 3.7
v -10.9 0.2 3.6
v -10.9 0.2 3.5
v -10.9 0.2 3.4
v -10.9 0.2 2.7
v -10.9 0.2 2.6
v -10.9 0.4 3.7
v -10.9 0.4 3.6
v -10.9 0.4 3.5
v -10.9 0.4 3.4
v -10.9 0.5 2.8
v -10.9 0.5 2.7
v -10.9 0.5 2.6
v -10.9 0.5 2.5
v -10.9 0.6 3.8
v -10.9 0.6 3.7
v -10.9 0.6 3.4
v -10.9 0.6 3.3
v -10.9 0.6 2.9
v -10.9 0.6 2.4
v -10.9 0.7 3.9
v -10.9 0.7 3.2
v -10.9 0.7 3
v -10.9 0.7 2.3
v -10.9 2.6 4
v -10.9 2.6 1.3
v -13.6 -0.1 4
v -13.6 2.6 4
v -12.4 2.1 4
v -12.4 2.6 4
v -12.1 2.1 4
v -12.1 2.6 4
v -10.9 -0.1 4
v -10.9 2.6 4
v -13.6 -0.1 1.3
v -13.6 2.6 1.3
v -12.4 2.1 1.3
v -12.4 2.6 1.3
v -12.1 2.1 1.3
v -12.1 2.6 1.3
v -10.9 -0.1 1.3
v -10.9 2.6 1.3
v -13.6 -0.1 4
v -10.9 -0.1 4
v -13.6 -0.1 1.3
v -10.9 -0.1 1.3
v -13.6 2.6 4
v -12.4 2.6 4
v -12.1 2.6 4
v -10.9 2.6 4
v -13.6 2.6 1.3
v -12.4 2.6 1.3
v -12.1 2.6 1.3
v -10.9 2.6 1.3

# faces
f 3/2/1 2/2/1 1/2/1
f 4/2/1 2/2/1 3/2/1
f 5/2/2 6/2/2 7/2/2
f 7/2/2 6/2/2 8/2/2
f 8/2/2 6/2/2 9/2/2
f 9/2/2 6/2/2 10/2/2
f 7/1/2 8/1/2 11/1/2
f 11/1/2 8/1/2 12/1/2
f 12/1/2 8/1/2 13/1/2
f 13/1/2 8/1/2 14/1/2
f 9/1/2 10/1/2 15/1/2
f 15/1/2 10/1/2 16/1/2
f 16/1/2 10/1/2 17/1/2
f 17/1/2 10/1/2 18/1/2
f 11/2/2 12/2/2 19/2/2
f 12/1/2 13/1/2 19/1/2
f 19/1/2 13/1/2 20/1/2
f 20/1/2 13/1/2 21/1/2
f 13/2/2 14/2/2 22/2/2
f 21/1/2 13/1/2 22/1/2
f 16/1/2 17/1/2 23/1/2
f 23/1/2 17/1/2 24/1/2
f 11/2/2 19/2/2 25/2/2
f 19/2/2 20/2/2 25/2/2
f 20/1/2 21/1/2 26/1/2
f 25/2/2 20/2/2 26/2/2
f 21/2/2 22/2/2 27/2/2
f 26/1/2 21/1/2 27/1/2
f 22/2/2 14/2/2 28/2/2
f 27/2/2 22/2/2 28/2/2
f 15/2/2 16/2/2 29/2/2
f 16/1/2 23/1/2 29/1/2
f 23/2/2 24/2/2 30/2/2
f 29/1/2 23/1/2 30/1/2
f 24/1/2 17/1/2 31/1/2
f 30/2/2 24/2/2 31/2/2
f 17/2/2 18/2/2 32/2/2
f 31/1/2 17/1/2 32/1/2
f 7/1/2 11/1/2 33/1/2
f 11/2/2 25/2/2 33/2/2
f 26/1/2 27/1/2 34/1/2
f 33/2/2 25/2/2 34/2/2
f 25/1/2 26/1/2 34/1/2
f 27/1/2 28/1/2 34/1/2
f 28/2/2 14/2/2 35/2/2
f 34/1/2 28/1/2 35/1/2
f 14/1/2 8/1/2 36/1/2
f 35/2/2 14/2/2 36/2/2
f 30/2/2 31/2/2 37/2/2
f 31/2/2 32/2/2 37/2/2
f 9/1/2 15/1/2 37/1/2
f 15/2/2 29/2/2 37/2/2
f 29/2/2 30/2/2 37/2/2
f 32/2/2 18/2/2 38/2/2
f 37/2/2 32/2/2 38/2/2
f 18/1/2 10/1/2 38/1/2
f 5/2/2 7/2/2 39/2/2
f 34/1/2 35/1/2 39/1/2
f 33/1/2 34/1/2 39/1/2
f 7/1/2 33/1/2 39/1/2
f 35/1/2 36/1/2 39/1/2
f 8/2/2 9/2/2 40/2/2
f 39/1/2 36/1/2 40/1/2
f 36/1/2 8/1/2 40/1/2
f 37/1/2 38/1/2 41/1/2
f 40/2/2 9/2/2 41/2/2
f 9/1/2 37/1/2 41/1/2
f 38/1/2 10/1/2 42/1/2
f 41/1/2 38/1/2 42/1/2
f 10/2/2 6/2/2 42/2/2
f 40/2/2 41/2/2 43/2/2
f 39/2/2 40/2/2 43/2/2
f 41/2/2 42/2/2 43/2/2
f 5/2/2 39/2/2 43/2/2
f 42/2/2 6/2/2 44/2/2
f 43/2/2 42/2/2 44/2/2
f 47/2/3 46/2/3 45/2/3
f 48/2/3 46/2/3 47/2/3
f 49/2/3 47/2/3 45/2/3
f 49/3/3 48/3/3 47/3/3
f 50/3/3 48/3/3 49/3/3
f 51/2/3 49/2/3 45/2/3
f 51/2/3 50/2/3 49/2/3
f 52/2/3 50/2/3 51/2/3
f 53/2/4 54/2/4 55/2/4
f 55/2/4 54/2/4 56/2/4
f 53/2/4 55/2/4 57/2/4
f 55/3/4 56/3/4 57/3/4
f 57/3/4 56/3/4 58/3/4
f 53/2/4 57/2/4 59/2/4
f 57/2/4 58/2/4 59/2/4
f 59/2/4 58/2/4 60/2/4
f 63/2/5 62/2/5 61/2/5
f 64/2/5 62/2/5 63/2/5
f 65/2/6 66/2/6 69/2/6
f 66/3/6 67/3/6 70/3/6
f 69/2/6 66/2/6 70/2/6
f 67/2/6 68/2/6 71/2/6
f 70/3/6 67/3/6 71/3/6
f 71/2/6 68/2/6 72/2/6
